<svg width="59" height="54" viewBox="0 0 59 54" fill="none" xmlns="http://www.w3.org/2000/svg">
<path d="M6.26001 3.84277C6.26001 2.18592 7.60316 0.842773 9.26001 0.842773H49.7619C51.4188 0.842773 52.7619 2.18592 52.7619 3.84277V17.1184H6.26001V3.84277Z" fill="#A3D4F7"/>
<mask id="mask0_21_323" style="mask-type:alpha" maskUnits="userSpaceOnUse" x="6" y="4" width="47" height="17">
<path d="M6.26001 7.33032C6.26001 5.67347 7.60316 4.33032 9.26001 4.33032H49.7619C51.4188 4.33032 52.7619 5.67347 52.7619 7.33032V20.606H6.26001V7.33032Z" fill="#FFB800"/>
</mask>
<g mask="url(#mask0_21_323)">
<path d="M6.26001 3.84277C6.26001 2.18592 7.60316 0.842773 9.26001 0.842773H49.7619C51.4188 0.842773 52.7619 2.18592 52.7619 3.84277V17.1184H6.26001V3.84277Z" fill="#53A5DF"/>
</g>
<path d="M6.26 17.1187H52.7619L58.5746 38.0445H0.447266L6.26 17.1187Z" fill="#A3D4F7"/>
<path d="M0.447266 43.8572H7.42255V51.1576C7.42255 52.2621 6.52712 53.1576 5.42255 53.1576H2.44727C1.3427 53.1576 0.447266 52.2621 0.447266 51.1576V43.8572Z" fill="#FAE73B" fill-opacity="0.89"/>
<path d="M51.5994 43.8572H58.5747V51.1576C58.5747 52.2621 57.6792 53.1576 56.5747 53.1576H53.5994C52.4948 53.1576 51.5994 52.2621 51.5994 51.1576V43.8572Z" fill="#FAE73B" fill-opacity="0.89"/>
<path d="M0.447266 38.0444H58.5746V44.5074C58.5746 46.7165 56.7838 48.5074 54.5746 48.5074H4.44726C2.23812 48.5074 0.447266 46.7165 0.447266 44.5074V38.0444Z" fill="#53A5DF"/>
<path d="M14.0694 15.0962C14.2571 13.5949 15.5333 12.4683 17.0462 12.4683H21.0499C22.5629 12.4683 23.8391 13.5949 24.0268 15.0962L24.4393 18.3965C24.6631 20.1871 23.267 21.7686 21.4625 21.7686H16.6337C14.8292 21.7686 13.433 20.1871 13.6569 18.3965L14.0694 15.0962Z" fill="white"/>
<path d="M33.8326 15.0962C34.0203 13.5949 35.2965 12.4683 36.8094 12.4683H40.8131C42.3261 12.4683 43.6023 13.5949 43.79 15.0962L44.2025 18.3965C44.4263 20.1871 43.0302 21.7686 41.2257 21.7686H36.3969C34.5924 21.7686 33.1962 20.1871 33.42 18.3965L33.8326 15.0962Z" fill="white"/>
</svg>
