<svg width="53" height="30" viewBox="0 0 53 30" fill="none" xmlns="http://www.w3.org/2000/svg">
<rect x="35.7056" y="14.3325" width="7.23177" height="7.23177" rx="1" fill="#53A5DF"/>
<path fill-rule="evenodd" clip-rule="evenodd" d="M3.96261 22.0291L51.58 22.0291C52.1323 22.0291 52.58 21.5814 52.58 21.0291V1.42202C52.58 0.866057 52.1156 0.416708 51.5596 0.424414C26.2086 0.775831 15.0923 5.26323 3.18008 20.4385C2.67069 21.0874 3.13764 22.0291 3.96261 22.0291ZM25.6579 15.5096L46.7588 15.5096C47.3111 15.5096 47.7588 15.0619 47.7588 14.5096V6.22549C47.7588 5.66952 47.3026 5.21974 46.7468 5.2303C35.5071 5.44394 30.2462 7.46295 24.8948 13.9329C24.369 14.5686 24.8329 15.5096 25.6579 15.5096Z" fill="#A3D4F7"/>
<path fill-rule="evenodd" clip-rule="evenodd" d="M2.90043 23.4016L51.6856 23.4016C52.1775 23.4016 52.5763 23.8342 52.5764 24.3678V28.2965L0.752283 28.2965V29.2965L52.5154 29.2965C52.3857 29.656 52.0631 29.9106 51.6857 29.9106L1.47135 29.9106C0.861606 29.9106 0.432128 29.2609 0.627724 28.6344L2.05681 24.0577C2.17929 23.6656 2.51869 23.4016 2.90043 23.4016Z" fill="#FAE73B" fill-opacity="0.89"/>
</svg>
