<?xml version="1.0" encoding="utf-8"?>
<!-- Generator: Adobe Illustrator 27.5.0, SVG Export Plug-In . SVG Version: 6.00 Build 0)  -->
<svg version="1.1" id="house_wife_laundry" xmlns="http://www.w3.org/2000/svg" xmlns:xlink="http://www.w3.org/1999/xlink" x="0px"
	 y="0px" viewBox="0 0 4000 3000" style="enable-background:new 0 0 4000 3000;" xml:space="preserve">
<g>
	<ellipse style="fill:#9FBF5A;" cx="2000" cy="2770.199" rx="1249.546" ry="77.076"/>
	<g>
		<g id="laundry_1_">
			<rect x="1837.682" y="1357.365" style="fill:#F5F6FD;" width="1182.448" height="1376.823"/>
			<g>
				<g>
					<g>
						<circle style="fill:#769AB8;" cx="2427.107" cy="2079.747" r="396.849"/>
						<path style="fill:#E7E9FB;" d="M2427.107,2469.99c-104.238,0-202.237-40.592-275.944-114.299
							c-73.707-73.707-114.299-171.706-114.299-275.943c0-104.238,40.592-202.237,114.299-275.944
							c73.707-73.707,171.707-114.299,275.944-114.299s202.236,40.592,275.944,114.299c73.707,73.707,114.3,171.707,114.3,275.944
							c0,104.237-40.593,202.236-114.3,275.943C2629.343,2429.397,2531.344,2469.99,2427.107,2469.99z"/>
						<g>
							<path style="fill:#769AB8;" d="M2427.107,2405.654c-87.054,0-168.896-33.9-230.452-95.456s-95.456-143.399-95.456-230.451
								c0-87.054,33.9-168.896,95.456-230.452s143.399-95.456,230.452-95.456c87.053,0,168.896,33.9,230.452,95.456
								c61.556,61.556,95.456,143.399,95.456,230.452c0,87.053-33.9,168.896-95.456,230.451
								C2596.002,2371.754,2514.159,2405.654,2427.107,2405.654z"/>
							<path style="fill:#7BC6F7;" d="M2427.107,2394.031c-83.949,0-162.872-32.691-222.233-92.052s-92.052-138.284-92.052-222.232
								c0-83.949,32.691-162.872,92.052-222.233c59.361-59.361,138.284-92.052,222.233-92.052
								c83.948,0,162.871,32.691,222.233,92.052c59.361,59.361,92.052,138.284,92.052,222.233
								c0,83.948-32.691,162.871-92.052,222.232C2589.978,2361.34,2511.055,2394.031,2427.107,2394.031z"/>
							<circle style="fill:#FFFFFF;" cx="2351.525" cy="1892.943" r="41.251"/>
							
								<ellipse transform="matrix(0.2298 -0.9732 0.9732 0.2298 -238.6754 4010.092)" style="fill:#FFFFFF;" cx="2414.146" cy="2155.836" rx="23.134" ry="23.134"/>
							
								<ellipse transform="matrix(0.2298 -0.9732 0.9732 0.2298 -49.225 3880.668)" style="fill:#FFFFFF;" cx="2427.107" cy="1971.433" rx="12.961" ry="12.961"/>
							
								<ellipse transform="matrix(0.2298 -0.9732 0.9732 0.2298 -180.5835 3698.9812)" style="fill:#FFFFFF;" cx="2246.642" cy="1963.579" rx="12.961" ry="12.961"/>
							
								<ellipse transform="matrix(0.1602 -0.9871 0.9871 0.1602 -43.2412 3934.2942)" style="fill:#FFFFFF;" cx="2290.485" cy="1992.559" rx="8.165" ry="8.165"/>
							
								<ellipse transform="matrix(0.9239 -0.3827 0.3827 0.9239 -656.3774 1041.771)" style="fill:#FFFFFF;" cx="2290.485" cy="2170.805" rx="8.165" ry="8.165"/>
							
								<ellipse transform="matrix(0.7071 -0.7071 0.7071 0.7071 -823.1528 2251.9885)" style="fill:#FFFFFF;" cx="2306.814" cy="2119.628" rx="8.165" ry="8.165"/>
							
								<ellipse transform="matrix(0.2298 -0.9732 0.9732 0.2298 9.9408 4043.1018)" style="fill:#FFFFFF;" cx="2559.306" cy="2015.271" rx="8.165" ry="8.165"/>
							<path style="fill:#F2F2F2;" d="M2576.243,2296.744c-4.688,0-9.302-2.198-12.214-6.317
								c-4.763-6.738-3.162-16.062,3.576-20.826c46.238-32.685,80.76-82.904,94.717-137.781
								c13.957-54.877,7.62-115.488-17.384-166.29c-3.644-7.404-0.596-16.36,6.807-20.004c7.405-3.646,16.359-0.596,20.004,6.807
								c28.096,57.084,35.215,125.189,19.533,186.852c-15.683,61.662-54.474,118.09-106.428,154.817
								C2582.235,2295.854,2579.223,2296.744,2576.243,2296.744z"/>
						</g>
					</g>
					<g>
						<rect x="2779.861" y="2039.866" style="fill:#769AB8;" width="18.767" height="79.762"/>
						<rect x="2802.358" y="2072.075" style="fill:#769AB8;" width="3.61" height="15.343"/>
					</g>
				</g>
			</g>
			<path style="fill:#E7E9FB;" d="M3009.032,1402.359H1848.781c-12.786,0-23.247-10.461-23.247-23.247v-50.693
				c0-12.786,10.461-23.247,23.247-23.247h1160.251c12.786,0,23.247,10.461,23.247,23.247v50.693
				C3032.279,1391.897,3021.818,1402.359,3009.032,1402.359z"/>
			<rect x="1824.184" y="2590.206" style="fill:#E7E9FB;" width="1209.445" height="167.378"/>
			<g>
				<path style="fill:#E7E9FB;" d="M2809.572,1570.977h-770.408c-23.447,0-42.454-19.007-42.454-42.454v-85.958h855.316v85.958
					C2852.025,1551.969,2833.018,1570.977,2809.572,1570.977z"/>
				<g>
					<g>
						<rect x="2351.525" y="1474.629" style="fill:#FFFFFF;" width="107.958" height="27.667"/>
						<rect x="2351.525" y="1512.737" style="fill:#FFFFFF;" width="107.958" height="27.667"/>
					</g>
					<path style="fill:#FFFFFF;" d="M2483.362,1551.765L2483.362,1551.765c-0.385,0-0.7-0.315-0.7-0.7v-84.972
						c0-0.385,0.315-0.7,0.7-0.7l0,0c0.385,0,0.7,0.315,0.7,0.7v84.972C2484.063,1551.45,2483.747,1551.765,2483.362,1551.765z"/>
					<g>
						<rect x="2508.712" y="1473.545" style="fill:#FFFFFF;" width="107.958" height="27.667"/>
						<rect x="2508.712" y="1511.653" style="fill:#FFFFFF;" width="107.958" height="27.667"/>
					</g>
					<path style="fill:#FFFFFF;" d="M2640.55,1550.681L2640.55,1550.681c-0.385,0-0.7-0.315-0.7-0.7v-84.972
						c0-0.385,0.315-0.7,0.7-0.7l0,0c0.385,0,0.7,0.315,0.7,0.7v84.972C2641.25,1550.366,2640.935,1550.681,2640.55,1550.681z"/>
					<path style="fill:#FFFFFF;" d="M2317.666,1568.02L2317.666,1568.02c-0.546,0-0.993-0.447-0.993-0.993v-120.512
						c0-0.546,0.447-0.993,0.993-0.993l0,0c0.546,0,0.993,0.447,0.993,0.993v120.512
						C2318.659,1567.573,2318.212,1568.02,2317.666,1568.02z"/>
					<g>
						<rect x="2084.789" y="1475.286" style="fill:#FFFFFF;" width="197.531" height="60.21"/>
						<g>
							<path style="fill:#FFFFFF;" d="M2142.257,1558.007c-4.868,0-8.828-3.96-8.828-8.828c0-4.869,3.96-8.829,8.828-8.829
								c4.867,0,8.828,3.96,8.828,8.829C2151.085,1554.047,2147.124,1558.007,2142.257,1558.007z M2142.257,1541.016
								c-4.5,0-8.162,3.662-8.162,8.163c0,4.5,3.662,8.161,8.162,8.161s8.162-3.662,8.162-8.161
								C2150.418,1544.678,2146.756,1541.016,2142.257,1541.016z"/>
							<path style="fill:#FFFFFF;" d="M2169.789,1558.007c-4.867,0-8.828-3.96-8.828-8.828c0-4.869,3.96-8.829,8.828-8.829
								s8.828,3.96,8.828,8.829C2178.617,1554.047,2174.656,1558.007,2169.789,1558.007z M2169.789,1541.016
								c-4.5,0-8.161,3.662-8.161,8.163c0,4.5,3.662,8.161,8.161,8.161s8.162-3.662,8.162-8.161
								C2177.95,1544.678,2174.288,1541.016,2169.789,1541.016z"/>
							<path style="fill:#FFFFFF;" d="M2197.321,1558.007c-4.868,0-8.828-3.96-8.828-8.828c0-4.869,3.96-8.829,8.828-8.829
								c4.867,0,8.828,3.96,8.828,8.829C2206.149,1554.047,2202.188,1558.007,2197.321,1558.007z M2197.321,1541.016
								c-4.5,0-8.162,3.662-8.162,8.163c0,4.5,3.662,8.161,8.162,8.161c4.5,0,8.161-3.662,8.161-8.161
								C2205.482,1544.678,2201.821,1541.016,2197.321,1541.016z"/>
							<path style="fill:#FFFFFF;" d="M2224.853,1558.007c-4.868,0-8.828-3.96-8.828-8.828c0-4.869,3.96-8.829,8.828-8.829
								c4.867,0,8.828,3.96,8.828,8.829C2233.681,1554.047,2229.72,1558.007,2224.853,1558.007z M2224.853,1541.016
								c-4.5,0-8.162,3.662-8.162,8.163c0,4.5,3.662,8.161,8.162,8.161s8.162-3.662,8.162-8.161
								C2233.014,1544.678,2229.353,1541.016,2224.853,1541.016z"/>
						</g>
					</g>
					<g>
						<path style="fill:#FFFFFF;" d="M2700.026,1500.055c-8.558,0-15.52-6.963-15.52-15.521s6.963-15.521,15.52-15.521
							c8.558,0,15.521,6.963,15.521,15.521S2708.584,1500.055,2700.026,1500.055z M2700.026,1470.187
							c-7.911,0-14.347,6.436-14.347,14.347c0,7.911,6.436,14.347,14.347,14.347c7.911,0,14.347-6.436,14.347-14.347
							C2714.373,1476.624,2707.937,1470.187,2700.026,1470.187z"/>
						<path style="fill:#FFFFFF;" d="M2748.425,1500.055c-8.558,0-15.521-6.963-15.521-15.521s6.963-15.521,15.521-15.521
							s15.521,6.963,15.521,15.521S2756.983,1500.055,2748.425,1500.055z M2748.425,1470.187c-7.911,0-14.347,6.436-14.347,14.347
							c0,7.911,6.436,14.347,14.347,14.347s14.347-6.436,14.347-14.347C2762.772,1476.624,2756.336,1470.187,2748.425,1470.187z"/>
						<path style="fill:#FFFFFF;" d="M2700.026,1543.252c-8.558,0-15.52-6.963-15.52-15.52c0-8.558,6.963-15.521,15.52-15.521
							c8.558,0,15.521,6.963,15.521,15.521C2715.546,1536.289,2708.584,1543.252,2700.026,1543.252z M2700.026,1513.384
							c-7.911,0-14.347,6.436-14.347,14.347c0,7.911,6.436,14.347,14.347,14.347c7.911,0,14.347-6.436,14.347-14.347
							C2714.373,1519.82,2707.937,1513.384,2700.026,1513.384z"/>
						<path style="fill:#FFFFFF;" d="M2748.425,1543.252c-8.558,0-15.521-6.963-15.521-15.52c0-8.558,6.963-15.521,15.521-15.521
							s15.521,6.963,15.521,15.521C2763.946,1536.289,2756.983,1543.252,2748.425,1543.252z M2748.425,1513.384
							c-7.911,0-14.347,6.436-14.347,14.347c0,7.911,6.436,14.347,14.347,14.347s14.347-6.436,14.347-14.347
							C2762.772,1519.82,2756.336,1513.384,2748.425,1513.384z"/>
					</g>
				</g>
			</g>
		</g>
		<g>
			<path style="fill:#E7E9FB;" d="M2923.138,1305.46h-118.176c-9.197,0-16.652-7.455-16.652-16.652v-188.007h151.48v188.007
				C2939.79,1298.005,2932.334,1305.46,2923.138,1305.46z"/>
			<rect x="2810.468" y="1257.782" style="fill:#65AFEF;" width="107.001" height="23.54"/>
			<g>
				<path style="fill:#65AFEF;" d="M2945.528,1116.558h-164.014v-24.575c0-3.832,3.106-6.938,6.938-6.938h150.137
					c3.832,0,6.938,3.106,6.938,6.938V1116.558z"/>
				<g>
					<path style="fill:#5695CC;" d="M2893.436,1109.709L2893.436,1109.709c-1.389,0-2.526-1.137-2.526-2.526v-12.764
						c0-1.389,1.137-2.526,2.526-2.526l0,0c1.389,0,2.526,1.137,2.526,2.526v12.764
						C2895.962,1108.573,2894.826,1109.709,2893.436,1109.709z"/>
					<path style="fill:#5695CC;" d="M2881.47,1109.709L2881.47,1109.709c-1.389,0-2.526-1.137-2.526-2.526v-12.764
						c0-1.389,1.137-2.526,2.526-2.526l0,0c1.389,0,2.526,1.137,2.526,2.526v12.764
						C2883.996,1108.573,2882.86,1109.709,2881.47,1109.709z"/>
					<path style="fill:#5695CC;" d="M2869.504,1109.709L2869.504,1109.709c-1.389,0-2.526-1.137-2.526-2.526v-12.764
						c0-1.389,1.137-2.526,2.526-2.526l0,0c1.389,0,2.526,1.137,2.526,2.526v12.764
						C2872.03,1108.573,2870.894,1109.709,2869.504,1109.709z"/>
					<path style="fill:#5695CC;" d="M2857.538,1109.709L2857.538,1109.709c-1.389,0-2.526-1.137-2.526-2.526v-12.764
						c0-1.389,1.137-2.526,2.526-2.526l0,0c1.389,0,2.526,1.137,2.526,2.526v12.764
						C2860.064,1108.573,2858.927,1109.709,2857.538,1109.709z"/>
					<path style="fill:#5695CC;" d="M2845.572,1109.709L2845.572,1109.709c-1.389,0-2.526-1.137-2.526-2.526v-12.764
						c0-1.389,1.137-2.526,2.526-2.526l0,0c1.389,0,2.526,1.137,2.526,2.526v12.764
						C2848.098,1108.573,2846.961,1109.709,2845.572,1109.709z"/>
					<path style="fill:#5695CC;" d="M2833.606,1109.709L2833.606,1109.709c-1.389,0-2.526-1.137-2.526-2.526v-12.764
						c0-1.389,1.137-2.526,2.526-2.526l0,0c1.389,0,2.526,1.137,2.526,2.526v12.764
						C2836.132,1108.573,2834.995,1109.709,2833.606,1109.709z"/>
				</g>
			</g>
		</g>
		<g>
			<path style="fill:#E7E9FB;" d="M2736.299,1305.46h-88.364c-13.161,0-23.436-11.38-22.095-24.473l30.777-300.68h71.001
				l30.777,300.68C2759.734,1294.081,2749.46,1305.46,2736.299,1305.46z"/>
			<path style="fill:#F6A577;" d="M2701.675,925.334h-19.116c-7.884,0-14.616,5.691-15.928,13.466l-6.169,36.558h63.311
				l-6.169-36.558C2716.291,931.025,2709.559,925.334,2701.675,925.334z"/>
			<g>
				<rect x="2651.863" y="971.35" style="fill:#F6A577;" width="80.507" height="14.168"/>
				<g>
					<path style="fill:#D17D4D;" d="M2692.117,983.123L2692.117,983.123c-0.731,0-1.33-0.598-1.33-1.33v-6.719
						c0-0.731,0.598-1.33,1.33-1.33l0,0c0.731,0,1.33,0.598,1.33,1.33v6.719C2693.446,982.525,2692.848,983.123,2692.117,983.123z"
						/>
					<path style="fill:#D17D4D;" d="M2685.679,983.123L2685.679,983.123c-0.731,0-1.33-0.598-1.33-1.33v-6.719
						c0-0.731,0.598-1.33,1.33-1.33l0,0c0.731,0,1.33,0.598,1.33,1.33v6.719C2687.008,982.525,2686.41,983.123,2685.679,983.123z"/>
					<path style="fill:#D17D4D;" d="M2679.241,983.123L2679.241,983.123c-0.731,0-1.33-0.598-1.33-1.33v-6.719
						c0-0.731,0.599-1.33,1.33-1.33l0,0c0.731,0,1.33,0.598,1.33,1.33v6.719C2680.571,982.525,2679.972,983.123,2679.241,983.123z"
						/>
					<path style="fill:#D17D4D;" d="M2672.803,983.123L2672.803,983.123c-0.731,0-1.33-0.598-1.33-1.33v-6.719
						c0-0.731,0.598-1.33,1.33-1.33l0,0c0.731,0,1.33,0.598,1.33,1.33v6.719C2674.133,982.525,2673.534,983.123,2672.803,983.123z"
						/>
					<path style="fill:#D17D4D;" d="M2666.365,983.123L2666.365,983.123c-0.731,0-1.33-0.598-1.33-1.33v-6.719
						c0-0.731,0.598-1.33,1.33-1.33l0,0c0.731,0,1.33,0.598,1.33,1.33v6.719C2667.695,982.525,2667.096,983.123,2666.365,983.123z"
						/>
					<path style="fill:#D17D4D;" d="M2724.307,983.123L2724.307,983.123c-0.731,0-1.33-0.598-1.33-1.33v-6.719
						c0-0.731,0.598-1.33,1.33-1.33l0,0c0.731,0,1.33,0.598,1.33,1.33v6.719C2725.636,982.525,2725.038,983.123,2724.307,983.123z"
						/>
					<path style="fill:#D17D4D;" d="M2717.869,983.123L2717.869,983.123c-0.731,0-1.33-0.598-1.33-1.33v-6.719
						c0-0.731,0.598-1.33,1.33-1.33l0,0c0.731,0,1.33,0.598,1.33,1.33v6.719C2719.198,982.525,2718.6,983.123,2717.869,983.123z"/>
					<path style="fill:#D17D4D;" d="M2711.431,983.123L2711.431,983.123c-0.731,0-1.33-0.598-1.33-1.33v-6.719
						c0-0.731,0.598-1.33,1.33-1.33l0,0c0.731,0,1.33,0.598,1.33,1.33v6.719C2712.76,982.525,2712.162,983.123,2711.431,983.123z"/>
					<path style="fill:#D17D4D;" d="M2704.993,983.123L2704.993,983.123c-0.731,0-1.33-0.598-1.33-1.33v-6.719
						c0-0.731,0.598-1.33,1.33-1.33l0,0c0.731,0,1.33,0.598,1.33,1.33v6.719C2706.323,982.525,2705.724,983.123,2704.993,983.123z"
						/>
					<path style="fill:#D17D4D;" d="M2698.555,983.123L2698.555,983.123c-0.731,0-1.33-0.598-1.33-1.33v-6.719
						c0-0.731,0.598-1.33,1.33-1.33l0,0c0.731,0,1.33,0.598,1.33,1.33v6.719C2699.885,982.525,2699.286,983.123,2698.555,983.123z"
						/>
					<path style="fill:#D17D4D;" d="M2659.927,983.123L2659.927,983.123c-0.731,0-1.33-0.598-1.33-1.33v-6.719
						c0-0.731,0.598-1.33,1.33-1.33l0,0c0.731,0,1.33,0.598,1.33,1.33v6.719C2661.257,982.525,2660.658,983.123,2659.927,983.123z"
						/>
				</g>
			</g>
			<rect x="2667.105" y="1068.891" style="fill:#F6A577;" width="50.023" height="75.035"/>
		</g>
		<g>
			<g>
				<path style="fill:#E7E9FB;" d="M2606.315,1035.268c0-36.931-30.046-66.977-66.977-66.977h-78.949
					c-5.188,0-10.232,0.612-15.084,1.734l-0.382-0.345v0c0-10.678-8.656-19.334-19.334-19.334h-98.447
					c-13.658,0-24.73,11.072-24.73,24.73v305.655c0,13.658,11.072,24.73,24.73,24.73h254.444c13.658,0,24.73-11.072,24.73-24.73
					v-165.216l-0.032-0.029c0.008-0.423,0.032-0.842,0.032-1.267V1035.268z M2461.63,1001.709h66.35
					c23.711,0,43.111,19.4,43.111,43.111v55.798L2461.63,1001.709z"/>
			</g>
			<rect x="2343.327" y="922.533" style="fill:#E7E9FB;" width="63.287" height="33.704"/>
			<g>
				<path style="fill:#65AFEF;" d="M2406.847,943.607h-63.752c-3.984,0-7.213-3.229-7.213-7.213v-19.611
					c0-3.984,3.229-7.213,7.213-7.213h63.752c3.984,0,7.213,3.229,7.213,7.213v19.611
					C2414.06,940.377,2410.831,943.607,2406.847,943.607z"/>
				<g>
					<path style="fill:#5695CC;" d="M2404.886,932.438L2404.886,932.438c-1.389,0-2.526-1.137-2.526-2.526v-12.764
						c0-1.389,1.136-2.526,2.526-2.526l0,0c1.389,0,2.526,1.137,2.526,2.526v12.764
						C2407.412,931.302,2406.275,932.438,2404.886,932.438z"/>
					<path style="fill:#5695CC;" d="M2392.92,932.438L2392.92,932.438c-1.389,0-2.526-1.137-2.526-2.526v-12.764
						c0-1.389,1.137-2.526,2.526-2.526l0,0c1.389,0,2.526,1.137,2.526,2.526v12.764
						C2395.446,931.302,2394.31,932.438,2392.92,932.438z"/>
					<path style="fill:#5695CC;" d="M2380.954,932.438L2380.954,932.438c-1.389,0-2.526-1.137-2.526-2.526v-12.764
						c0-1.389,1.137-2.526,2.526-2.526l0,0c1.389,0,2.526,1.137,2.526,2.526v12.764
						C2383.48,931.302,2382.344,932.438,2380.954,932.438z"/>
					<path style="fill:#5695CC;" d="M2368.988,932.438L2368.988,932.438c-1.389,0-2.526-1.137-2.526-2.526v-12.764
						c0-1.389,1.136-2.526,2.526-2.526l0,0c1.389,0,2.526,1.137,2.526,2.526v12.764
						C2371.514,931.302,2370.377,932.438,2368.988,932.438z"/>
					<path style="fill:#5695CC;" d="M2357.022,932.438L2357.022,932.438c-1.389,0-2.526-1.137-2.526-2.526v-12.764
						c0-1.389,1.137-2.526,2.526-2.526l0,0c1.389,0,2.526,1.137,2.526,2.526v12.764
						C2359.548,931.302,2358.411,932.438,2357.022,932.438z"/>
					<path style="fill:#5695CC;" d="M2345.056,932.438L2345.056,932.438c-1.389,0-2.526-1.137-2.526-2.526v-12.764
						c0-1.389,1.137-2.526,2.526-2.526l0,0c1.389,0,2.526,1.137,2.526,2.526v12.764
						C2347.582,931.302,2346.445,932.438,2345.056,932.438z"/>
				</g>
			</g>
		</g>
	</g>
	<g id="woman">
		<path style="fill:#F8A588;" d="M1302.736,461.537c0,0,19.174-39.975,31.958-54.138c12.783-14.163-16.863-19.059-30.594-5.681
			c-13.731,13.378-21.49,14.447-45.027,24.147c-23.538,9.699-54.823,30.081-57.501,40.943c-2.678,10.862,32.47,54.651,41.525,69.725
			c9.055,15.074,43.235,16.67,47.616-0.269C1295.093,519.325,1295.954,475.009,1302.736,461.537z"/>
		<path style="fill:#4D1912;" d="M1719.911,460.362c-73.803,84.189-119.968,194.172-114.213,305.983
			c1.89,36.718,11.914,77.916,43.944,95.968c18.132,10.218,39.916,10.88,60.725,11.288c73.084,1.432,147.05,2.778,218.279-13.646
			c30.471-7.026,64.157-21.07,73.657-50.863c5.759-18.06,0.904-37.919-7.221-55.044c-8.126-17.126-19.408-32.606-27.528-49.735
			c-37.217-78.507,6.577-180.966-37.532-255.818C1917.983,428.063,1743.873,433.029,1719.911,460.362z"/>
		<path style="fill:#F8A588;" d="M2125.299,1213.806c9.008-10.298,23.453-43.752,22.601-62.772s-81.816-225.159-81.816-225.159
			s-94.392,30.024-97.741,70.254c0,0,87.629,203.003,94.956,209.501C2079.64,1220.126,2115.777,1224.691,2125.299,1213.806z"/>
		<path style="fill:#F8A588;" d="M2108.992,1120.116c7.715-1.098,38.907,30.918,57.198,67.763
			c13.249,26.688,45.71,238.973,45.71,238.973s-7.454,31.109-22.632,40.054c0,0-122.576-217.719-131.129-265.442
			C2053.342,1174.699,2101.277,1121.214,2108.992,1120.116z"/>
		<path style="fill:#C35376;" d="M1983.732,778.146c18.086,8.099,50.233,26.035,55.005,38.714
			c4.772,12.678,61.149,156.865,88.476,230.545c-22.375,44.263-71.352,51.094-119.733,62.208
			c-37.004-53.435-52.755-108.758-73.547-170.332l-13.403-155.223C1920.529,784.057,1964.648,769.6,1983.732,778.146z"/>
		<path style="fill:#F8A588;" d="M2250.985,1442.92c0,0,33.564,13.689,49.085,15.251c15.521,1.562,0.248,20.805-15.415,20.239
			c-15.664-0.566-20.951,3.047-40.536,10.094c-19.585,7.047-49.728,11.877-57.314,6.767c-7.586-5.11-10.335-50.936-13.126-65.039
			c-2.791-14.104,17.04-33.837,28.994-25.98C2214.627,1412.108,2239.48,1438.482,2250.985,1442.92z"/>
		<path style="fill:#C35376;" d="M1993.933,956.35c-15.647-16.386-42.433-175.36-42.433-175.36l-148.028-11.55l-176.735,9.381
			c0,0,1.921,161.144-13.725,177.53c-55.961,58.606,7.715,128.165,29.069,161.597c29.471,96.444,21.538,185.643,22.092,274.807
			c48.599,8.377,93.682,12.316,139.3,13.663c45.618-1.347,90.701-5.286,139.3-13.663c0.554-89.163-7.379-178.363,22.092-274.807
			C1986.218,1084.515,2049.894,1014.956,1993.933,956.35z"/>
		<g>
			<g>
				<g>
					<path style="fill:#F8A588;" d="M1759.08,842.002h74.426c23.212,0,42.029-18.817,42.029-42.029V653.491h-158.485v146.482
						C1717.051,823.185,1735.868,842.002,1759.08,842.002z"/>
					<path style="fill:#B36650;" d="M1875.536,653.491v57.974c-39.412,31.895-92.684,53.432-158.485,57.974V653.491H1875.536z"/>
				</g>
			</g>
		</g>
		<g>
			<g>
				<g>
					<path style="fill:#F8A588;" d="M1869.492,663.126c6.791,1.902,14.235,0.468,20.529-2.638
						c6.294-3.106,11.605-7.764,16.605-12.58c13.199-12.713,25.473-28.733,24.537-46.688c-0.313-6.007-2.346-12.233-7.043-16.196
						c-5.593-4.72-14.113-5.292-21.022-2.644c-6.909,2.648-12.346,8.061-16.361,14.09L1869.492,663.126z"/>
					<path style="fill:#F8A588;" d="M1704.433,663.126c-6.791,1.902-14.235,0.468-20.529-2.638
						c-6.294-3.106-11.605-7.764-16.605-12.58c-13.199-12.713-25.473-28.733-24.537-46.688c0.313-6.007,2.346-12.233,7.043-16.196
						c5.593-4.72,14.113-5.292,21.022-2.644c6.909,2.648,12.346,8.061,16.361,14.09L1704.433,663.126z"/>
				</g>
				<path style="fill:#F8A588;" d="M1896.479,660.435c5.225-53.823,19.872-85.205,28.927-116.304
					c6.466-23.299,13.014-63.103-15.26-98.195c-27.939-36.459-98.059-57.168-162.259-39.739
					c-64.655,17.455-114.295,64.859-106.466,106.088c3.954,24.687,21.438,47.654,25.743,73.121
					c3.572,21.172-3.149,42.406,5.021,63.033c15.218,35.49,74.025,97.744,120.344,97.744
					C1830.383,746.183,1892.871,683.921,1896.479,660.435z"/>
			</g>
			<path style="fill:#1A1A1A;" d="M1824.217,561.935c5.847-1.255,11.929-1.496,17.888-0.774c5.959,0.717,11.803,2.411,17.171,5.03
				c5.342,2.647,10.288,6.155,14.013,10.826c-5.747-1.57-11.037-3.133-16.371-4.329c-5.31-1.226-10.582-2.156-15.893-2.811
				c-5.312-0.65-10.657-1.012-16.109-1.096C1819.446,568.659,1818.389,563.225,1824.217,561.935z"/>
			<path style="fill:#1A1A1A;" d="M1746.532,560.966c-5.872-1.138-11.959-1.259-17.901-0.419
				c-5.942,0.835-11.749,2.644-17.059,5.369c-5.284,2.753-10.155,6.358-13.779,11.101c5.712-1.683,10.968-3.35,16.275-4.653
				c5.282-1.331,10.534-2.365,15.83-3.126c5.297-0.755,10.633-1.222,16.082-1.415
				C1751.446,567.594,1752.387,562.14,1746.532,560.966z"/>
			<path style="fill:#F2F2F2;" d="M1798.947,627.277c-0.381,1.132-0.849,2.112-1.38,3.113c-0.548,0.972-1.109,2.047-2.108,2.568
				c-0.948,0.507-2.38,0.149-3.49-1.464c-0.554-0.792-0.948-1.863-1.105-3.09c-0.133-1.22-0.01-2.588,0.449-3.914
				c0.473-1.321,1.232-2.457,2.096-3.313c0.887-0.846,1.86-1.418,2.781-1.671c1.864-0.527,3.192,0.122,3.608,1.128
				c0.446,1.049,0.208,2.242,0.025,3.347C1799.609,625.097,1799.359,626.157,1798.947,627.277z"/>
			<path style="fill:#D1785E;" d="M1787.184,631.093c-0.179-0.771-0.332-1.461-0.453-2.077c-0.109-0.617-0.211-1.155-0.287-1.699
				c-0.07-0.56-0.111-1.19-0.086-1.911c0.022-0.718,0.107-1.512,0.209-2.323c0.21-1.626,0.461-3.297,0.375-4.711
				c-0.074-1.417-0.473-2.581-1.278-3.292c-0.805-0.706-1.587-0.692-2.442-0.104c-0.849,0.592-1.804,1.769-2.779,3.492
				c-0.951,1.712-1.967,4.078-2.226,6.92c-0.134,1.408-0.015,2.915,0.301,4.314c0.308,1.414,0.827,2.744,1.428,4.01
				c0.603,1.268,1.305,2.392,2.035,3.425c0.735,1.036,1.517,1.957,2.262,2.76c1.509,1.62,2.935,2.871,4.123,3.806
				c2.4,1.85,3.837,2.523,4.627,1.242c0.74-1.201,0.669-2.678-0.626-4.818c-0.631-1.071-1.569-2.31-2.598-3.8
				c-0.508-0.745-1.036-1.556-1.5-2.432C1787.824,633.038,1787.43,632.084,1787.184,631.093z"/>
			<g>
				<path style="fill:#1A1A1A;" d="M1822.869,603.315c0-7.889,11.177-19.751,20.03-19.75l0,0c7.379,0.041,13.384,6.111,13.343,13.49
					l-0.042,6.407c-0.02,3.684-5.71-9.104-14.026-9.071C1833.834,594.424,1822.869,607.265,1822.869,603.315z"/>
				<path style="fill:#1A1A1A;" d="M1839.765,584.02c0,0,9.67-2.036,18.059,3.792c8.389,5.828,14.238,2.62,14.238,2.62
					s-6.947,6.675-15.354,2.691s-12.468-2.248-12.468-2.248L1839.765,584.02z"/>
			</g>
			<g>
				<path style="fill:#1A1A1A;" d="M1748.388,603.315c0-7.889-11.177-19.751-20.03-19.75h0c-7.379,0.041-13.384,6.111-13.343,13.49
					l0.042,6.407c0.02,3.653,8.4-7.186,16.645-7.123C1740.11,596.405,1748.388,607.298,1748.388,603.315z"/>
				<path style="fill:#1A1A1A;" d="M1731.491,584.02c0,0-9.67-2.036-18.059,3.792c-8.389,5.828-14.238,2.62-14.238,2.62
					s6.947,6.675,15.353,2.691c8.406-3.983,12.468-2.248,12.468-2.248L1731.491,584.02z"/>
			</g>
			<path style="fill:#A33939;" d="M1758.855,664.031c22.309,9.34,48.841,5.275,67.709-9.663c2.913-2.306-1.199-6.369-4.085-4.085
				c-17.332,13.723-41.808,16.669-62.088,8.178c-1.45-0.607-3.162,0.655-3.553,2.017
				C1756.361,662.137,1757.423,663.432,1758.855,664.031L1758.855,664.031z"/>
			<path style="fill:#62271B;" d="M1908.908,508.332c-0.211-3.306-0.508-5.376-0.907-5.864c-3.719-4.547-6.507,52.745-6.507,52.745
				c-60.494-5.996-216.607,2.728-216.607,2.728l-6.74-56.155c-10.459,12.277-4.53,134.772-4.53,134.772
				c-15.469-42.166-35.699-116.344-38.586-159.765c-1.632-24.54,18.031-41.206,33.838-44.207
				c9.512-40.315,43.36-54.754,84.335-66.702c47.761-13.927,101.959,1.044,138.646,34.041
				c36.687,32.997,56.664,69.742,47.242,117.575c-9.836,49.939-5.841,90.205-32.569,131.353
				C1906.523,648.853,1910.664,535.829,1908.908,508.332z"/>
			<path style="fill:#62271B;" d="M1854.649,429.824c48.081,61.405,65.06,146.487,44.295,221.958
				c-10.259,37.287-28.909,71.602-42.146,107.916c-13.236,36.314-20.912,76.894-8.458,113.491
				c2.346-30.236,16.05-59.429,37.728-80.375c24.656,59.523,49.705,120.848,50.854,185.377
				c0.931,52.249-17.476,107.667-54.97,141.84c81.063-9.642,149.371-81.489,157.801-163.15
				c11.054-107.084-69.775-201.992-83.986-308.694c-6.031-45.279,0.176-91.493-5.206-136.856
				c-5.382-45.363-26.309-93.323-67.777-111.406L1854.649,429.824z"/>
		</g>
		<g>
			<path style="fill:#F8A588;" d="M1288.891,776.247c8.441-10.768,38.62-31.189,57.466-33.893
				c18.846-2.704,236.455,38.461,236.455,38.461s-11.924,98.331-50.826,109.113c0,0-208.53-24.779-226.336-46.928
				C1284.258,816.39,1279.969,787.629,1288.891,776.247z"/>
			<path style="fill:#C35376;" d="M1693.58,816.077c-1.367-19.77-25.764-34.416-39.047-37.076
				c-14.505-2.905-109.428-24.192-198.383-30.729c-34.071,36.042-38.549,103.947-32.622,153.233
				c59.462,15.831,145.32,41.024,211.407,63.961C1634.935,965.465,1694.963,836.078,1693.58,816.077z"/>
			<path style="fill:#F8A588;" d="M1360.446,839.731c7.197-2.988,21.606-65.287,18.649-98.366
				c-2.957-33.079-83.896-259.168-83.896-259.168s-37.996-11.06-53.874,4.396c0,0,26.798,301.968,40.584,329.346
				C1309.593,870.911,1353.249,842.719,1360.446,839.731z"/>
		</g>
		<path style="fill:#62271B;" d="M1696.795,478.79c-35.577,62.514-53.517,133.694-62.757,205.027
			c-5.409,41.759-7.491,86.377,11.939,123.734c12.729,24.474,37.704,43.831,64.015,48.996c-23.1,8.026-49.061,7.956-71.92-0.83
			c-30.397-11.684-54.545-38.49-63.004-69.938c-8.66-32.195-1.434-66.276,5.807-98.819c11.214-50.398,22.428-100.795,33.642-151.193
			c6.854-30.801,11.449-66.61,33.25-91.636C1658.425,431.9,1696.795,478.79,1696.795,478.79z"/>
		<g>
			<path style="fill:#F0B59C;" d="M1592.837,2392.052c1.208,96.101,2.319,192.524,1.791,215.291l52.911,2.36
				c9.87-65.319,22.713-143.112,35.717-217.651H1592.837z"/>
			<g>
				<path style="fill:#C35376;" d="M1664.781,2611.673c-0.342-28.994-18.795-35.031-18.795-35.031l-60.693,23.812
					c0,0-99.997,202.169-84.922,206.699l108.023,2.894c31.121,0.685,23.059-48.756,35.099-74.965l-0.567,75.65h13.546l6.315-105.376
					c1.03-3.703,1.743-6.86,2.025-9.212C1666.305,2683.705,1665.239,2650.421,1664.781,2611.673z"/>
				<path style="fill:#F0B59C;" d="M1595.187,2570.903c-5.302,14.85-28.001,72.231-33.841,90.464
					c-4.527,14.132-14.753,45.819-21.435,66.511c-3.145,9.739,3.904,19.77,14.131,20.128l64.021,1.349l33.731-160.165
					c0.579-4.731,0.928-29.092-9.271-35.168C1632.323,2547.946,1600.489,2556.054,1595.187,2570.903z"/>
			</g>
		</g>
		<g>
			<path style="fill:#F0B59C;" d="M2162.152,2269.661l-54.503,46.155c50.801,53.937,101.06,108.069,117.405,125.036l42.06-32.525
				C2225.617,2367.723,2191.582,2319.258,2162.152,2269.661z"/>
			<g>
				<path style="fill:#C35376;" d="M2259.838,2387.14c0,0,120.233,84.886,139.323,99.453c19.09,14.567,34.175,45.396,33.672,57.347
					l-78.918,66.83c-15.896,7.058-135.576-177.305-135.576-177.305L2259.838,2387.14z"/>
				<path style="fill:#F0B59C;" d="M2197.241,2409.57c10.35,12.221,48.656,60.876,61.874,75.449
					c15.874,17.5,62.156,68.797,62.156,68.797s48.917-35.871,49.93-46.197c2.877-29.328-32.121-56.033-32.121-56.033l-80.913-67.768
					c-4.144-3.176-27.494-17.831-41.168-14.838S2186.891,2397.348,2197.241,2409.57z"/>
			</g>
		</g>
		<path style="fill:#869AC9;" d="M1657.064,1326.195c0,0-89.128,250.31-88.425,291.839c0.703,41.529,0,340.165,0,340.165
			s118.565,98.453,164.75,29.728c24.879-37.02,25.184-349.71,25.184-349.71l73.277-33.118l-14.261-263.293L1657.064,1326.195z"/>
		<path style="fill:#869AC9;" d="M1565.833,2540.497c0,0,111.638,35.797,120.089,0c8.451-35.796,25.961-372.621,36.105-446.403
			c10.144-73.783,27.585-168.081,21.619-201.853c-5.966-33.771-167.225-26.184-171.116,19.887
			c-3.891,46.071-18.563,126.282-17.989,171.028C1555.116,2127.901,1565.833,2540.497,1565.833,2540.497z"/>
		<path style="fill:#869AC9;" d="M1949.19,1326.195c0,0,62.95,250.748,57.893,292.277c-5.057,41.529-35.662,340.165-35.662,340.165
			s-128.886,98.453-167.867,29.728c-20.998-37.02,14.035-396.776,14.035-396.776l-56.683,0.438l8.037-253.039L1949.19,1326.195z"/>
		<path style="fill:#869AC9;" d="M2267.802,2359.462c0,0-66.603,99.907-91.644,77.606c-25.041-22.3-218.471-252.551-264.532-303.216
			c-46.062-50.666-107.102-113.101-112.495-170.477c-4.583-48.75,110.308-120.123,137.205-86.908
			c26.897,33.216,79.753,85.94,102.554,121.013C2061.691,2032.553,2267.802,2359.462,2267.802,2359.462z"/>
		<path style="fill:#6C7ABD;" d="M1956.103,1354.277l-4.021-44.713c0,0-83.787,6.056-156.819,6.056
			c-73.032,0-136.753-12.564-136.753-12.564l-9.047,44.737c0,0,82.078,13.833,144.263,13.833S1956.103,1354.277,1956.103,1354.277z"
			/>
		<path style="fill:#FFDA82;" d="M1215.669,490.282c22.455,132.62,78.05,264.22,26.466,388.443
			c-23.141,55.728-58.214,117.934-31.33,171.956c16.476,33.108,53.629,54.18,63.833,89.726
			c12.653,44.08-21.168,86.794-31.534,131.468c-10.706,46.14,4.622,95.24,30.846,134.683c26.224,39.443,62.531,70.927,98.375,101.89
			c137.728,118.976,276.443,238.664,433.515,330.603c132.809,77.737,388.656,217.131,427.885,168.377
			c21.368-26.557,14.174-167.487-26.175-313.908c-37.473-135.985,25.801-224.163,62.484-271.34
			c-417.046-195.23-969.463-911.277-997.086-967.708C1245.325,398.041,1201.034,403.846,1215.669,490.282z"/>
		<g>
			<path style="fill:#F8A588;" d="M2247.609,1455.751c0,0,5.827,8.424,24.523,33.068c18.696,24.644-3.713,33.614-14.529,19.403
				c-10.816-14.212-23.736-41.086-31.22-51.733C2218.899,1445.841,2237.468,1441.825,2247.609,1455.751z"/>
			<path style="fill:#B36650;" d="M2266.654,1514.548c-2.947-0.861-5.552-2.638-7.587-4.878c-1.034-1.107-1.858-2.399-2.75-3.64
				c-0.889-1.24-1.694-2.542-2.545-3.809c-3.309-5.136-6.365-10.435-9.353-15.772l-8.919-16.052
				c-1.501-2.671-3.003-5.342-4.577-7.98c-0.774-1.325-1.592-2.629-2.409-3.934c-0.825-1.3-1.784-2.569-2.424-3.809
				c-0.343-0.631-0.549-1.301-0.698-1.967c-0.095-0.669-0.082-1.336,0.101-1.956c0.4-1.23,1.494-2.175,2.806-2.671
				c2.66-1.018,5.789-0.677,8.564,0.245c2.813,0.937,5.379,2.579,7.534,4.637c1.1,1.015,2.033,2.183,2.929,3.38l2.713,3.715
				c7.283,9.854,14.762,19.55,22.378,29.142l-10.785-14.868c-3.61-4.943-7.209-9.895-10.746-14.886l-2.627-3.756
				c-0.918-1.263-1.904-2.5-3.048-3.573c-2.253-2.179-4.952-3.938-7.949-4.96c-2.97-0.993-6.304-1.438-9.436-0.283
				c-1.532,0.562-3.03,1.751-3.599,3.473c-0.262,0.852-0.281,1.742-0.161,2.587c0.173,0.827,0.424,1.634,0.811,2.35
				c0.783,1.472,1.705,2.642,2.523,3.92c0.815,1.285,1.633,2.568,2.412,3.881c1.58,2.61,3.097,5.265,4.613,7.921
				c3.03,5.315,5.976,10.685,9.091,15.962c3.103,5.283,6.266,10.539,9.704,15.622c0.897,1.246,1.747,2.523,2.682,3.741
				c0.934,1.213,1.806,2.487,2.903,3.587C2260.945,1512.139,2263.668,1513.829,2266.654,1514.548z"/>
		</g>
		<g>
			<path style="fill:#F8A588;" d="M2236.214,1467.536c0,0,4.242,9.334,18.298,36.908s-10.016,32.853-18.156,16.946
				c-8.14-15.907-16.007-44.76-21.487-56.577C2209.389,1452.997,2228.695,1452.024,2236.214,1467.536z"/>
			<path style="fill:#B36650;" d="M2252.624,1529.722c-3.204,1.039-6.728,0.328-9.542-1.342c-2.853-1.679-5.033-4.311-6.482-7.246
				c-2.906-5.979-5.294-12.206-7.521-18.482c-2.21-6.285-4.36-12.595-6.491-18.918c-2.178-6.31-4.227-12.661-6.941-18.833
				c-0.677-1.474-1.208-2.982-1.036-4.461c0.082-0.724,0.325-1.409,0.752-1.976c0.435-0.562,1.041-0.994,1.719-1.3
				c1.365-0.63,3.003-0.692,4.563-0.513c1.574,0.211,3.122,0.703,4.573,1.398c2.911,1.392,5.418,3.593,7.339,6.205
				c0.984,1.308,1.754,2.718,2.46,4.216l2.196,4.504c2.96,5.984,5.985,11.931,9.037,17.865l4.647,8.864l2.337,4.425
				c0.754,1.484,1.457,2.994,2.19,4.495c-0.669-1.525-1.313-3.069-2.008-4.588l-2.199-4.495l-4.373-9
				c-2.93-5.992-5.85-11.989-8.691-18.02l-2.105-4.531c-0.694-1.525-1.528-3.061-2.543-4.427c-2.007-2.764-4.643-5.116-7.75-6.627
				c-1.551-0.753-3.215-1.298-4.947-1.541c-1.724-0.204-3.561-0.172-5.256,0.584c-0.838,0.371-1.636,0.923-2.231,1.683
				c-0.588,0.765-0.925,1.7-1.032,2.627c-0.224,1.879,0.427,3.643,1.122,5.176c2.698,6.031,4.797,12.387,7.007,18.669
				c2.187,6.3,4.312,12.63,6.682,18.876c2.352,6.25,4.856,12.462,7.907,18.426c1.585,2.983,3.92,5.627,6.894,7.256
				C2245.834,1530.329,2249.467,1530.905,2252.624,1529.722z"/>
		</g>
		<g>
			<path style="fill:#F8A588;" d="M2215.487,1472.323c0,0,3.779,9.223,16.401,36.548c12.622,27.325-10.548,31.171-17.859,15.406
				c-7.312-15.765-13.979-44.003-18.868-55.685S2208.757,1456.972,2215.487,1472.323z"/>
			<path style="fill:#B36650;" d="M2221.309,1532.181c-2.621-1.434-4.726-3.666-6.192-6.22c-0.752-1.268-1.265-2.668-1.853-4.034
				c-0.586-1.364-1.079-2.77-1.623-4.151c-2.072-5.573-3.871-11.247-5.595-16.943l-5.125-17.117
				c-0.869-2.852-1.739-5.704-2.683-8.54c-0.459-1.421-0.964-2.831-1.468-4.242c-0.513-1.408-1.159-2.814-1.509-4.126
				c-0.194-0.672-0.25-1.351-0.253-2.015c0.05-0.656,0.201-1.286,0.504-1.838c0.637-1.086,1.874-1.755,3.225-1.952
				c2.74-0.412,5.643,0.565,8.087,2.021c2.478,1.478,4.574,3.575,6.192,5.98c0.834,1.194,1.476,2.499,2.078,3.823l1.803,4.097
				c4.864,10.885,9.947,21.663,15.182,32.369l-7.145-16.383c-2.399-5.452-4.786-10.909-7.104-16.392l-1.713-4.118
				c-0.609-1.392-1.288-2.773-2.15-4.032c-1.686-2.542-3.884-4.777-6.519-6.374c-2.615-1.564-5.691-2.683-8.909-2.24
				c-1.573,0.214-3.245,1.032-4.145,2.549c-0.427,0.755-0.631,1.596-0.693,2.425c-0.009,0.822,0.062,1.641,0.28,2.403
				c0.437,1.562,1.069,2.866,1.579,4.252c0.506,1.391,1.016,2.782,1.481,4.192c0.957,2.81,1.844,5.651,2.73,8.491
				c1.77,5.684,3.448,11.403,5.307,17.068c1.845,5.669,3.754,11.325,5.96,16.873c0.593,1.371,1.133,2.762,1.768,4.115
				c0.634,1.348,1.197,2.741,2.01,4.015C2216.387,1528.698,2218.622,1530.873,2221.309,1532.181z"/>
		</g>
		<g>
			<path style="fill:#F8A588;" d="M2198.491,1482.776c0,0,3.209,8.415,14.028,33.357c10.819,24.942-10.574,28.257-16.843,13.866
				c-6.269-14.39-11.591-40.116-15.751-50.775S2192.745,1468.765,2198.491,1482.776z"/>
			<path style="fill:#B36650;" d="M2209.484,1538.191c-2.866,0.736-5.917-0.08-8.293-1.697c-2.41-1.628-4.177-4.054-5.287-6.706
				c-2.221-5.401-3.975-10.99-5.585-16.615c-1.594-5.631-3.135-11.28-4.658-16.94c-1.566-5.651-3.015-11.331-5.057-16.89
				c-0.513-1.33-0.896-2.681-0.665-3.968c0.111-0.63,0.362-1.217,0.767-1.692c0.412-0.469,0.967-0.814,1.578-1.045
				c1.231-0.478,2.671-0.443,4.029-0.2c1.369,0.271,2.698,0.787,3.933,1.475c2.476,1.379,4.554,3.446,6.096,5.841
				c0.791,1.2,1.389,2.479,1.927,3.831l1.679,4.069c2.269,5.408,4.596,10.787,6.948,16.156l3.591,8.025l1.808,4.007
				c0.58,1.343,1.114,2.705,1.675,4.06c-0.504-1.374-0.983-2.762-1.51-4.132l-1.683-4.061l-3.343-8.129
				c-2.242-5.413-4.474-10.83-6.636-16.273l-1.598-4.088c-0.526-1.375-1.173-2.767-1.988-4.021
				c-1.609-2.533-3.792-4.739-6.434-6.233c-1.318-0.745-2.748-1.314-4.253-1.621c-1.5-0.273-3.113-0.345-4.64,0.225
				c-0.755,0.279-1.485,0.72-2.048,1.354c-0.557,0.639-0.904,1.44-1.049,2.247c-0.299,1.635,0.176,3.217,0.701,4.599
				c2.036,5.435,3.53,11.122,5.125,16.75c1.573,5.643,3.091,11.308,4.828,16.914c1.721,5.607,3.578,11.19,5.927,16.586
				c1.227,2.702,3.13,5.147,5.648,6.738C2203.498,1538.353,2206.652,1539.056,2209.484,1538.191z"/>
		</g>
		<g>
			<g>
				<path style="fill:#F8A588;" d="M1289.137,452.682c0,0-1.638-12.421-4.936-50.111c-3.297-37.69-30.974-27.414-29.104-5.651
					c1.871,21.763,12.235,56.731,14.198,72.527C1271.257,485.243,1291.385,473.632,1289.137,452.682z"/>
				<path style="fill:#B36650;" d="M1258.103,383.752c-1.963,3.201-2.865,6.951-2.869,10.652c-0.028,1.853,0.287,3.701,0.498,5.557
					c0.213,1.854,0.553,3.695,0.823,5.542c1.22,7.373,2.802,14.686,4.479,21.976l5.1,21.873c0.833,3.654,1.666,7.309,2.407,10.991
					c0.387,1.837,0.716,3.69,1.049,5.544c0.32,1.857,0.493,3.794,0.932,5.443c0.207,0.854,0.57,1.63,0.982,2.356
					c0.464,0.685,1.023,1.277,1.698,1.69c1.373,0.786,3.14,0.745,4.737,0.115c3.247-1.262,5.803-4.141,7.56-7.256
					c1.78-3.16,2.756-6.756,3.019-10.39c0.164-1.824,0.049-3.648-0.121-5.469l-0.593-5.595c-1.493-14.912-2.679-29.843-3.656-44.791
					l2.438,22.333c0.788,7.445,1.593,14.889,2.488,22.318l0.704,5.562c0.206,1.899,0.328,3.829,0.173,5.742
					c-0.252,3.826-1.253,7.636-3.13,11.025c-1.876,3.34-4.532,6.481-8.319,8.007c-1.85,0.749-4.184,0.901-6.114-0.192
					c-0.938-0.557-1.685-1.348-2.271-2.212c-0.523-0.891-0.958-1.828-1.195-2.796c-0.499-1.977-0.625-3.794-0.933-5.625
					c-0.317-1.834-0.629-3.669-1.002-5.498c-0.711-3.663-1.518-7.315-2.325-10.967c-1.62-7.305-3.36-14.592-4.871-21.934
					c-1.528-7.337-2.978-14.698-4.037-22.128c-0.21-1.866-0.489-3.721-0.641-5.593c-0.15-1.866-0.406-3.737-0.316-5.635
					C1254.908,390.625,1255.988,386.856,1258.103,383.752z"/>
			</g>
			<g>
				<path style="fill:#F8A588;" d="M1269.13,451.36c0,0-3.823-11.943-13.731-48.478c-9.909-36.535-36.061-21.547-30.373-0.445
					s22.257,53.713,26.996,68.923C1256.761,486.569,1275.057,471.594,1269.13,451.36z"/>
				<path style="fill:#B36650;" d="M1232.925,381.525c-3.757,1.689-6.366,5.229-7.546,9.053c-1.207,3.865-1.021,8.041,0.077,11.89
					c2.278,7.805,5.228,15.41,8.365,22.927c3.159,7.511,6.394,14.996,9.656,22.476c3.209,7.508,6.568,14.946,9.178,22.769
					c0.597,1.893,1.355,3.695,2.726,4.893c0.668,0.589,1.452,1.009,2.305,1.173c0.856,0.152,1.76,0.046,2.626-0.234
					c1.754-0.55,3.29-1.839,4.557-3.284c1.253-1.484,2.251-3.201,2.996-5.022c1.495-3.652,1.959-7.706,1.554-11.652
					c-0.183-1.993-0.643-3.904-1.233-5.842l-1.71-5.885c-2.232-7.854-4.375-15.729-6.483-23.613l-3.069-11.851l-1.516-5.93
					c-0.536-1.965-1.139-3.91-1.707-5.872c0.646,1.932,1.332,3.859,1.949,5.807l1.699,5.879l3.429,11.749
					c2.266,7.837,4.546,15.67,6.924,23.469l1.814,5.835c0.623,1.952,1.129,4.029,1.332,6.102c0.451,4.154-0.006,8.45-1.581,12.372
					c-0.787,1.956-1.847,3.817-3.218,5.46c-1.394,1.601-3.086,3.081-5.243,3.788c-1.064,0.352-2.241,0.508-3.404,0.307
					c-1.161-0.21-2.235-0.781-3.094-1.533c-1.746-1.519-2.605-3.653-3.234-5.612c-2.509-7.682-5.827-15.166-8.983-22.675
					c-3.193-7.506-6.466-14.988-9.449-22.595c-3.001-7.596-5.834-15.282-7.968-23.194c-1.014-4.005-1.069-8.319,0.288-12.238
					C1226.273,386.551,1229.092,383.045,1232.925,381.525z"/>
			</g>
			<g>
				<path style="fill:#F8A588;" d="M1246.414,464.046c0,0-4.151-11.463-15.155-46.594c-11.004-35.131-35.162-19.586-28.839,0.707
					c6.322,20.293,23.474,51.361,28.638,65.964C1236.22,498.725,1252.924,483.487,1246.414,464.046z"/>
				<path style="fill:#B36650;" d="M1202.526,405.017c-1.197,3.452-1.272,7.204-0.502,10.723c0.36,1.767,1.045,3.457,1.634,5.177
					c0.589,1.718,1.297,3.397,1.939,5.095c2.699,6.752,5.73,13.372,8.845,19.951l9.415,19.723c1.555,3.298,3.109,6.598,4.583,9.944
					c0.752,1.664,1.451,3.358,2.154,5.05c0.692,1.698,1.261,3.503,2.022,4.978c0.375,0.768,0.883,1.43,1.426,2.034
					c0.584,0.554,1.239,1,1.966,1.251c1.469,0.46,3.14,0.052,4.526-0.88c2.822-1.878,4.65-5.147,5.67-8.474
					c1.032-3.374,1.209-6.996,0.7-10.505c-0.225-1.767-0.715-3.477-1.257-5.172l-1.731-5.193
					c-4.532-13.861-8.778-27.803-12.827-41.805l6.981,20.716c2.304,6.911,4.623,13.817,7.025,20.69l1.83,5.139
					c0.592,1.762,1.111,3.571,1.363,5.421c0.559,3.688,0.404,7.519-0.673,11.132c-1.085,3.565-2.953,7.106-6.234,9.347
					c-1.602,1.098-3.789,1.73-5.851,1.094c-1.008-0.333-1.883-0.929-2.62-1.628c-0.683-0.738-1.292-1.538-1.72-2.408
					c-0.887-1.775-1.386-3.476-2.061-5.151c-0.684-1.677-1.364-3.355-2.101-5.016c-1.441-3.333-2.97-6.635-4.5-9.938
					c-3.065-6.604-6.241-13.166-9.209-19.828c-2.984-6.653-5.899-13.347-8.457-20.187c-0.589-1.73-1.242-3.434-1.778-5.182
					c-0.532-1.742-1.166-3.467-1.477-5.29C1200.925,412.216,1201.164,408.409,1202.526,405.017z"/>
			</g>
			<g>
				<path style="fill:#F8A588;" d="M1222.426,468.533c0,0-4.003-10.263-14.685-41.753c-10.681-31.49-32.792-16.923-26.653,1.268
					c6.138,18.19,22.445,45.877,27.43,58.953C1213.502,500.077,1228.726,485.95,1222.426,468.533z"/>
				<path style="fill:#B36650;" d="M1186.872,409.282c-3.202,1.686-5.296,4.932-6.122,8.349c-0.847,3.454-0.456,7.105,0.717,10.42
					c2.423,6.719,5.424,13.225,8.585,19.645c3.18,6.413,6.424,12.798,9.693,19.179c3.223,6.407,6.574,12.746,9.29,19.461
					c0.627,1.627,1.39,3.166,2.657,4.142c0.618,0.48,1.328,0.805,2.085,0.903c0.759,0.087,1.545-0.056,2.289-0.349
					c1.508-0.578,2.784-1.792,3.816-3.127c1.018-1.37,1.799-2.93,2.353-4.567c1.111-3.284,1.297-6.863,0.727-10.3
					c-0.269-1.738-0.776-3.388-1.4-5.055l-1.82-5.066c-2.386-6.764-4.694-13.551-6.973-20.348l-3.337-10.222l-1.653-5.116
					c-0.577-1.693-1.212-3.366-1.817-5.055c0.672,1.659,1.378,3.311,2.026,4.985l1.81,5.062l3.647,10.113
					c2.414,6.747,4.841,13.49,7.352,20.198l1.909,5.017c0.653,1.678,1.209,3.471,1.5,5.277c0.622,3.617,0.456,7.409-0.711,10.933
					c-0.583,1.758-1.411,3.447-2.523,4.962c-1.135,1.48-2.537,2.87-4.39,3.607c-0.914,0.367-1.937,0.568-2.968,0.455
					c-1.03-0.121-2.002-0.563-2.796-1.175c-1.614-1.237-2.483-3.06-3.142-4.744c-2.619-6.598-5.936-12.978-9.114-19.389
					c-3.209-6.406-6.487-12.787-9.517-19.294c-3.046-6.496-5.949-13.08-8.251-19.9c-1.107-3.456-1.391-7.236-0.415-10.746
					C1181.314,414.052,1183.594,410.824,1186.872,409.282z"/>
			</g>
		</g>
		<g>
			<path style="fill:#F14950;" d="M1922.868,544.779c-36.896-40.224-109.832-69.689-161.208-54.492
				c-46.576,13.777-90.447,43.59-105.521,91.385c-9.259-58.608,15.698-116.371,66.335-144.105
				c53.034-29.046,137.195-20.218,168.351,16.874c13.34,15.881,17.683,26.054,23.725,44.004
				C1920.529,516.211,1922.868,544.779,1922.868,544.779z"/>
			<g>
				<path style="fill:#FFFFFF;" d="M1737.56,448.072c0,2.33-1.813,4.219-4.05,4.219c-2.237,0-4.05-1.889-4.05-4.219
					c0-2.33,1.813-4.218,4.05-4.218C1735.747,443.853,1737.56,445.742,1737.56,448.072z"/>
				<path style="fill:#FFFFFF;" d="M1671.814,538.396c0,2.33-1.813,4.219-4.05,4.219s-4.049-1.889-4.049-4.219
					c0-2.33,1.813-4.218,4.049-4.218S1671.814,536.066,1671.814,538.396z"/>
				<path style="fill:#FFFFFF;" d="M1792.11,435.913c0,2.33-1.813,4.218-4.049,4.218c-2.237,0-4.05-1.889-4.05-4.218
					c0-2.33,1.813-4.219,4.05-4.219C1790.297,431.694,1792.11,433.583,1792.11,435.913z"/>
				<path style="fill:#FFFFFF;" d="M1859.523,441.372c0,2.33-1.813,4.218-4.05,4.218c-2.237,0-4.05-1.889-4.05-4.218
					s1.813-4.218,4.05-4.218C1857.71,437.154,1859.523,439.042,1859.523,441.372z"/>
				<path style="fill:#FFFFFF;" d="M1876.436,491.001c0,2.33-1.813,4.218-4.05,4.218c-2.236,0-4.049-1.889-4.049-4.218
					s1.813-4.218,4.049-4.218C1874.623,486.782,1876.436,488.671,1876.436,491.001z"/>
				<path style="fill:#FFFFFF;" d="M1821.172,467.675c0,2.33-1.813,4.218-4.05,4.218c-2.236,0-4.05-1.889-4.05-4.218
					s1.813-4.218,4.05-4.218C1819.359,463.457,1821.172,465.345,1821.172,467.675z"/>
				<path style="fill:#FFFFFF;" d="M1885.941,456.391c2.125-0.955,4.591-0.076,5.508,1.964c0.917,2.04-0.062,4.468-2.187,5.423
					c-2.125,0.955-4.591,0.076-5.508-1.964C1882.837,459.774,1883.816,457.346,1885.941,456.391z"/>
				<path style="fill:#FFFFFF;" d="M1914.549,506.882c0,2.33-1.813,4.218-4.05,4.218c-2.236,0-4.05-1.889-4.05-4.218
					c0-2.33,1.813-4.218,4.05-4.218C1912.736,502.663,1914.549,504.552,1914.549,506.882z"/>
				<path style="fill:#FFFFFF;" d="M1767.574,471.646c0,2.33-1.813,4.218-4.05,4.218c-2.236,0-4.05-1.889-4.05-4.218
					s1.813-4.218,4.05-4.218C1765.761,467.427,1767.574,469.316,1767.574,471.646z"/>
				<path style="fill:#FFFFFF;" d="M1722.553,490.008c0,2.33-1.813,4.219-4.049,4.219c-2.237,0-4.05-1.889-4.05-4.219
					c0-2.33,1.813-4.218,4.05-4.218C1720.74,485.79,1722.553,487.678,1722.553,490.008z"/>
				<path style="fill:#FFFFFF;" d="M1681.105,492.986c0,2.33-1.813,4.218-4.05,4.218c-2.236,0-4.05-1.889-4.05-4.218
					c0-2.33,1.813-4.219,4.05-4.219C1679.292,488.767,1681.105,490.656,1681.105,492.986z"/>
			</g>
		</g>
	</g>
</g>
<g>
	<g>
		<g>
			<path style="fill:#778F44;" d="M877.896,2232.206c-12.788-0.909-25.344,2.497-37.618,6.2
				c-21.984,6.633-29.961,21.237-25.194,33.139c8.586,21.434,72.545,9.425,89.765,10.129c31.707,1.296,79.027,22.534,100.141,31.797
				C1004.991,2313.47,940.581,2236.663,877.896,2232.206z"/>
			<path style="fill:#9FBF5A;" d="M1119.896,2438.529c13.843-26.697-7.546-143.177-86.309-193.76
				c-50.803-32.627-135.482-35.98-189.604-9.218l-10.026,5.036c23.118-9.398,58.23-2.125,76.424,14.955
				c18.194,17.081,28.952,40.468,38.476,63.535c9.523,23.067,18.502,46.878,34.207,66.272
				c17.303,21.366,43.433,32.383,69.509,41.099C1084.611,2437.156,1119.896,2438.529,1119.896,2438.529z"/>
		</g>
		<path style="fill:#9FBF5A;" d="M927.002,2230.371c33.529,15.994,64.185,37.609,91.111,63.162
			c27.036,25.658,50.387,55.123,69.704,86.979c21.299,35.124,37.844,73.001,50.326,112.102
			c6.217,19.476,11.447,39.262,15.805,59.235c4.476,20.518,7.721,41.216,10.986,61.951c6.05,38.419,14.543,79.349,42.266,108.546
			c3.084,3.248,6.39,6.26,9.863,9.087c1.909,1.554,3.944-1.688,2.057-3.224c-31.329-25.505-42.297-66.625-48.748-104.741
			c-3.564-21.054-6.452-42.195-10.723-63.128c-4.058-19.89-8.962-39.612-14.819-59.05c-11.77-39.06-27.402-77.051-47.688-112.48
			c-18.588-32.464-41.144-62.721-67.482-89.316c-25.962-26.214-55.62-48.911-88.273-66.162c-4.066-2.148-8.178-4.206-12.328-6.186
			C926.862,2226.098,924.785,2229.313,927.002,2230.371L927.002,2230.371z"/>
	</g>
	<g>
		<g>
			<g>
				<path style="fill:#778F44;" d="M1474.318,2346.213c13.84,2.855,27.76,9.713,41.193,17.083
					c24.025,13.35,33.625,28.776,29.987,36.413c-3.317,6.977-21.857,1.919-42.412-4.11c-20.478-6.213-42.971-13.397-52.399-14.921
					c-34.582-6.538-85.216,6.826-107.864,14.978C1342.454,2395.3,1406.096,2330.931,1474.318,2346.213z"/>
			</g>
			<g>
				<path style="fill:#9FBF5A;" d="M1231.983,2514.449c-9.621-9.599-13.505-40.721-4.606-77.117
					c8.914-36.095,30.61-77.466,72.524-100.62c26.869-14.943,65.009-21.016,103.547-16.532
					c38.607,4.213,77.611,18.982,107.81,39.468c3.745,2.542,7.474,5.11,11.187,7.704c-25.328-16.483-62.909-20.449-81.018-9.676
					c-18.049,10.482-27.121,28.616-34.792,46.612c-7.682,18.096-14.648,36.86-29.609,52.197
					c-16.476,16.875-44.083,26.263-71.928,36.334C1270.878,2504.776,1231.973,2514.362,1231.983,2514.449z"/>
			</g>
		</g>
		<g>
			<path style="fill:#9FBF5A;" d="M1419.754,2333.103c-35.566,7.243-67.682,23.46-94.701,45.488
				c-27.161,22.109-49.307,49.862-66.161,80.146c-18.602,33.418-31.014,69.728-38.678,106.084
				c-3.818,18.119-6.485,36.283-8.198,54.292c-1.757,18.506-2.187,36.719-2.673,54.886c-0.828,33.854-4.346,69.479-28.445,105.705
				c-2.672,4.056-5.588,8.055-8.682,12.025c-1.7,2.182-4.188,0.574-2.51-1.594c27.963-35.681,34.035-72.39,35.297-106.212
				c0.743-18.562,0.719-37.029,2.174-55.856c1.385-17.884,3.681-35.948,7.08-54.012c6.829-36.278,18.116-72.708,35.424-106.638
				c15.844-31.064,36.865-59.938,63.054-83.519c25.785-23.246,56.629-41.314,91.224-50.779c4.304-1.18,8.667-2.222,13.074-3.136
				C1419.365,2329.499,1422.106,2332.628,1419.754,2333.103C1419.754,2333.103,1419.754,2333.103,1419.754,2333.103z"/>
		</g>
	</g>
	<g>
		<path style="fill:#9FBF5A;" d="M1229.299,2102.082c13.833-3.939,28.237-3.367,41.405,3.301
			c30.687,15.798,44.215,57.376,37.29,88.03c-6.981,30.778-30.312,54.501-53.208,79.774c-21.456,23.527-24.319,33.767-47.297,80.314
			c-23.772,46.653-40.704,8.112-43.485-0.675c-16.038-44.62-18.256-92.389-10.149-140.69c4.869-29.126,14.359-59.89,35.002-83.65
			C1199.664,2116.089,1214.163,2106.378,1229.299,2102.082z"/>
		<path style="fill:#9FBF5A;" d="M1250.031,2141.99c-24.938,29.672-41.776,65.153-52.213,102.329
			c-11.522,41.04-15.23,83.788-15.732,126.278c-0.539,45.694,2.002,91.43,3.678,137.081c1.676,45.666,3.352,91.332,5.027,136.999
			c1.676,45.666,3.352,91.332,5.028,136.998c0.208,5.681,0.417,11.362,0.625,17.043c0.09,2.444,3.911,2.613,3.821,0.149
			c-1.66-45.229-3.32-90.458-4.979-135.688c-1.66-45.229-3.32-90.458-4.979-135.688c-1.654-45.065-3.96-90.167-4.407-135.265
			c-0.429-43.277,1.514-86.943,11.135-129.277c8.602-37.853,23.207-74.74,46.226-106.212c2.987-4.084,6.112-8.067,9.368-11.94
			C1254.193,2142.935,1251.613,2140.108,1250.031,2141.99L1250.031,2141.99z"/>
	</g>
	<g>
		<path style="fill:#9FBF5A;" d="M1206.257,2717.421c1.025-30.879,2.05-61.783,1.233-92.68c-0.393-14.867-0.963-29.836-2.927-44.592
			c-1.814-13.63-5.019-27.16-11.3-39.472c-6.156-12.068-15.254-22.853-27.115-29.612c-2.386-1.36-4.534,2.32-2.15,3.678
			c10.279,5.858,18.273,14.896,24.017,25.149c6.441,11.496,9.886,24.368,11.864,37.327c2.206,14.446,2.784,29.171,3.242,43.76
			c0.472,15.047,0.489,30.105,0.265,45.157c-0.255,17.099-0.822,34.192-1.389,51.284
			C1201.906,2720.163,1206.167,2720.16,1206.257,2717.421L1206.257,2717.421z"/>
		<g>
			<path style="fill:#9FBF5A;" d="M1097.266,2710.534c3.56,3.691,8.302,5.732,12.549,3.562c4.308-2.202,6.351-7.727,8.386-12.603
				c8.24-19.746,22.119-35.599,36.441-50.079c14.322-14.48,29.475-28.156,41.395-45.257c11.92-17.102,20.504-38.461,19.063-60.287
				c-1.223-18.527-20.081-31.711-37.266-37.54c-0.124,0.011-0.188,0.016-0.188,0.016c-10.843,0.832-24.313-1.231-54.552,8.597
				c-17.693,5.751-34.743,16.22-46.105,32.795c-11.362,16.574-16.164,39.862-9.316,59.425c5.054,14.439,15.793,25.82,19.529,40.777
				c4.529,18.129-1.832,39.236,6.459,55.524C1094.601,2707.309,1095.839,2709.054,1097.266,2710.534z"/>
			<path style="fill:#9FBF5A;" d="M1130.822,2607.003c2.934-13.547,7.151-26.842,12.662-39.563
				c5.528-12.761,12.278-24.993,20.138-36.466c4.399-6.421,9.152-12.586,14.236-18.479c0.859-0.995,0.978-2.466,0-3.444
				c-0.878-0.878-2.581-1-3.444,0c-9.296,10.774-17.557,22.439-24.593,34.808c-7.034,12.366-12.868,25.434-17.393,38.922
				c-2.523,7.519-4.624,15.176-6.303,22.927c-0.278,1.284,0.383,2.634,1.701,2.995
				C1129.043,2609.038,1130.543,2608.294,1130.822,2607.003L1130.822,2607.003z"/>
		</g>
	</g>
</g>
</svg>
