<svg width="35" height="47" viewBox="0 0 35 47" fill="none" xmlns="http://www.w3.org/2000/svg">
<path d="M0.743652 11.5803C0.743652 8.26661 3.42994 5.58032 6.74365 5.58032H28.9762C32.2899 5.58032 34.9762 8.26661 34.9762 11.5803V33.6886C34.9762 37.0023 32.2899 39.6886 28.9762 39.6886H6.74365C3.42995 39.6886 0.743652 37.0023 0.743652 33.6886V11.5803Z" fill="#A3D4F7"/>
<path d="M13.4735 16.9309L12.9051 14.9486C12.6694 14.1267 12.9822 13.246 13.6835 12.7569L16.6534 10.6855C17.3711 10.1849 18.3309 10.209 19.0226 10.745L21.603 12.7447C22.2497 13.2459 22.5259 14.0904 22.3004 14.8769L21.7189 16.9049C21.6432 17.1689 21.6226 17.4457 21.6586 17.718L24.1714 36.7458C24.24 37.2656 24.1018 37.7916 23.7865 38.2105L19.4578 43.9611C18.6577 45.0241 17.0621 45.0241 16.262 43.9611L11.9151 38.1863C11.6106 37.7818 11.4709 37.2769 11.5241 36.7734L13.5399 17.6923C13.5669 17.4366 13.5444 17.1781 13.4735 16.9309Z" fill="#FAE73B" fill-opacity="0.89"/>
<path d="M14.6506 19.8269H20.5344" stroke="white" stroke-linecap="round" stroke-linejoin="round"/>
<path d="M16.4332 11.887L11.2629 14.4627C10.4283 14.8785 9.41716 14.6624 8.82543 13.9418L5.7393 10.1836C5.29457 9.64201 5.16574 8.90715 5.39974 8.24657L7.7601 1.58318C8.04296 0.78467 8.7982 0.250977 9.64532 0.250977H25.0805C25.89 0.250977 26.6197 0.73896 26.9289 1.4871L29.6772 8.13722C29.9732 8.85359 29.8287 9.67652 29.3062 10.2491L25.8311 14.0578C25.2288 14.718 24.2617 14.8984 23.4619 14.5L18.2169 11.887C17.6552 11.6072 16.9948 11.6072 16.4332 11.887Z" fill="#53A5DF"/>
<path d="M10.3716 4.8501L17.5826 11.2687L24.2786 4.8501" stroke="#A3D4F7" stroke-width="1.5" stroke-linecap="round" stroke-linejoin="round"/>
</svg>
